<svg xmlns="http://www.w3.org/2000/svg" width="1em" height="1em" viewBox="0 0 24 24"><g fill="none"><path fill="#000000" d="M4.158 13.93a3.752 3.752 0 0 1 0-3.86a1.5 1.5 0 0 1 .993-.7l1.693-.339a.45.45 0 0 0 .258-.153L9.17 6.395c1.182-1.42 1.774-2.129 2.301-1.938C12 4.648 12 5.572 12 7.42v9.162c0 1.847 0 2.77-.528 2.962c-.527.19-1.119-.519-2.301-1.938L7.1 15.122a.45.45 0 0 0-.257-.153L5.15 14.63a1.5 1.5 0 0 1-.993-.7"/><path stroke="#000000" stroke-linecap="round" stroke-width="0.9" d="M14.536 8.464a5 5 0 0 1 .027 7.044m4.094-9.165a8 8 0 0 1 .044 11.27"/></g></svg>