<svg xmlns="http://www.w3.org/2000/svg" width="1em" height="1em" viewBox="0 0 24 24"><path fill="currentColor" fill-rule="evenodd" d="M12.707 2.293a1 1 0 0 0-1.414 0l-2 2a1 1 0 0 0 1.414 1.414L11 5.414v2.729c0 .473.448.857 1 .857s1-.384 1-.857V5.414l.293.293a1 1 0 1 0 1.414-1.414zM5.636 11.05A1 1 0 0 0 7.05 9.636l-.707-.707a1 1 0 0 0-1.414 1.414zm13.435-.707l-.707.707a1 1 0 0 1-1.414-1.414l.707-.707a1 1 0 0 1 1.414 1.414M8 16a4 4 0 1 1 6.646 3H9.354A3.988 3.988 0 0 1 8 16m.97 5H21a1 1 0 1 0 0-2h-3.803a6 6 0 1 0-10.394 0H3a1 1 0 1 0 0 2zM4 17a1 1 0 1 0 0-2H3a1 1 0 1 0 0 2zm18-1a1 1 0 0 1-1 1h-1a1 1 0 1 1 0-2h1a1 1 0 0 1 1 1" clip-rule="evenodd"/></svg>