<svg xmlns="http://www.w3.org/2000/svg" width="1em" height="1em" viewBox="0 0 24 24"><path fill="currentColor" fill-rule="evenodd" d="M8 16a4 4 0 1 1 6.646 3H9.354A3.988 3.988 0 0 1 8 16m.97 5H21a1 1 0 1 0 0-2h-3.803a6 6 0 1 0-10.394 0H3a1 1 0 1 0 0 2zM19.071 8.929a1 1 0 0 1 0 1.414l-.707.707a1 1 0 0 1-1.414-1.414l.707-.707a1 1 0 0 1 1.414 0M4 17a1 1 0 1 0 0-2H3a1 1 0 1 0 0 2zm18-1a1 1 0 0 1-1 1h-1a1 1 0 1 1 0-2h1a1 1 0 0 1 1 1M5.636 11.05A1 1 0 0 0 7.05 9.636l-.707-.707a1 1 0 1 0-1.414 1.414zM13 5.586V3a1 1 0 1 0-2 0v2.586l-.293-.293a1 1 0 0 0-1.414 1.414l1.999 1.999l.01.01a.997.997 0 0 0 1.406-.01l2-1.999a1 1 0 0 0-1.415-1.414z" clip-rule="evenodd"/></svg>